<?xml version="1.0" encoding="utf-8"?>
<!-- Generator: Adobe Illustrator 23.0.0, SVG Export Plug-In . SVG Version: 6.00 Build 0)  -->
<svg version="1.1" id="Layer_1" xmlns="http://www.w3.org/2000/svg" xmlns:xlink="http://www.w3.org/1999/xlink" x="0px" y="0px"
	 viewBox="0 0 50 50" style="enable-background:new 0 0 50 50;" xml:space="preserve">
<style type="text/css">
	.st0{fill:#FFFFFF;}
</style>
<path class="st0" d="M44.7,9.4v31c0,1.2-0.4,2.2-1.2,3c-0.8,0.8-1.8,1.2-3,1.2H33V29h5.3l0.8-6H33v-3.8c0-0.6,0.1-1.2,0.2-1.5
	c0.1-0.4,0.4-0.7,0.9-1c0.5-0.3,1.1-0.4,1.9-0.4H39V11c-1.2-0.2-2.8-0.3-4.6-0.3c-2.4,0-4.2,0.7-5.6,2.1c-1.4,1.4-2.1,3.3-2.1,5.8
	V23h-5.4v6h5.4v15.6H9.4c-1.2,0-2.2-0.4-3-1.2c-0.8-0.8-1.2-1.8-1.2-3v-31c0-1.2,0.4-2.2,1.2-3c0.8-0.8,1.8-1.2,3-1.2h31
	c1.2,0,2.2,0.4,3,1.2C44.3,7.2,44.7,8.2,44.7,9.4z"/>
<path d="M128.3,192.8c0.1,1.6,0.1,4.3,0.1,8.1c0,3.8,0,6.5-0.1,8.1c-0.2,3.6-1.2,6.4-3.2,8.3c-2,2-4.7,3-8.3,3.1
	c-1.6,0.1-4.3,0.2-8.1,0.2c-3.8,0-6.5-0.1-8.1-0.2c-3.6-0.2-6.3-1.2-8.3-3.2c-0.8-0.7-1.4-1.5-1.9-2.5c-0.5-0.9-0.8-1.9-1-2.7
	c-0.2-0.9-0.3-1.9-0.3-3.1c-0.1-1.6-0.2-4.3-0.2-8.1c0-3.8,0.1-6.6,0.2-8.2c0.2-3.5,1.2-6.3,3.2-8.2c1.9-2,4.7-3.1,8.3-3.3
	c1.6-0.1,4.3-0.1,8.1-0.1c3.8,0,6.5,0,8.1,0.1c3.6,0.2,6.4,1.2,8.3,3.2C127.1,186.4,128.2,189.2,128.3,192.8z M124.1,212.5
	c0.2-0.5,0.3-1.1,0.4-1.8c0.1-0.7,0.2-1.6,0.3-2.6c0.1-1,0.1-1.9,0.1-2.5c0-0.6,0-1.6,0-2.7c0-1.2,0-1.8,0-2c0-0.1,0-0.8,0-1.9
	c0-1.1,0-2,0-2.7c0-0.6,0-1.5-0.1-2.5c-0.1-1-0.1-1.9-0.3-2.6c-0.1-0.7-0.3-1.3-0.4-1.8c-0.7-1.8-2-3.1-3.8-3.8
	c-0.5-0.2-1.1-0.3-1.8-0.4c-0.7-0.1-1.6-0.2-2.6-0.3c-1-0.1-1.9-0.1-2.5-0.1c-0.6,0-1.5,0-2.7,0c-1.2,0-1.9,0-2,0
	c-0.1,0-0.8,0-1.9,0c-1.2,0-2.1,0-2.7,0c-0.6,0-1.5,0-2.5,0.1c-1,0.1-1.9,0.1-2.6,0.3c-0.7,0.1-1.3,0.3-1.8,0.4
	c-1.8,0.7-3.1,2-3.8,3.8c-0.2,0.5-0.3,1.1-0.4,1.8c-0.1,0.7-0.2,1.6-0.3,2.6c-0.1,1-0.1,1.9-0.1,2.5c0,0.6,0,1.5,0,2.7
	c0,1.2,0,1.9,0,2c0,0.2,0,0.8,0,1.6c0,0.9,0,1.6,0,2.1c0,0.6,0,1.3,0,2.2c0,0.9,0.1,1.6,0.1,2.2c0.1,0.6,0.1,1.2,0.3,1.9
	c0.1,0.6,0.2,1.2,0.4,1.6c0.8,1.8,2,3.1,3.8,3.8c0.5,0.2,1.1,0.3,1.8,0.4c0.7,0.1,1.6,0.2,2.6,0.3c1,0.1,1.9,0.1,2.5,0.1
	c0.6,0,1.5,0,2.7,0c1.2,0,1.9,0,2,0c0.2,0,0.8,0,2,0c1.1,0,2,0,2.7,0c0.6,0,1.5,0,2.5-0.1c1-0.1,1.9-0.1,2.6-0.3
	c0.7-0.1,1.3-0.3,1.8-0.4C122.1,215.5,123.4,214.3,124.1,212.5z M101.5,193.7c2-2,4.4-3,7.2-3c2.8,0,5.2,1,7.2,3c2,2,3,4.4,3,7.2
	c0,2.8-1,5.2-3,7.2c-2,2-4.4,3-7.2,3c-2.8,0-5.2-1-7.2-3c-2-2-3-4.4-3-7.2C98.5,198.1,99.5,195.7,101.5,193.7z M104,205.5
	c1.3,1.3,2.9,1.9,4.7,1.9c1.8,0,3.4-0.6,4.7-1.9c1.3-1.3,1.9-2.9,1.9-4.7c0-1.8-0.6-3.4-1.9-4.7c-1.3-1.3-2.9-1.9-4.7-1.9
	c-1.8,0-3.4,0.6-4.7,1.9c-1.3,1.3-1.9,2.9-1.9,4.7C102.1,202.7,102.7,204.3,104,205.5z M120.9,188.7c0.4,0.4,0.7,1,0.7,1.6
	c0,0.6-0.2,1.2-0.7,1.7c-0.4,0.5-1,0.7-1.6,0.7c-0.6,0-1.2-0.2-1.7-0.7c-0.5-0.5-0.7-1-0.7-1.7c0-0.6,0.2-1.2,0.7-1.6
	c0.5-0.4,1-0.7,1.7-0.7C119.9,188,120.5,188.2,120.9,188.7z"/>
<path d="M213,185.4v31c0,1.2-0.4,2.2-1.2,3c-0.8,0.8-1.8,1.2-3,1.2h-31c-1.2,0-2.2-0.4-3-1.2c-0.8-0.8-1.2-1.8-1.2-3v-31
	c0-1.2,0.4-2.2,1.2-3c0.8-0.8,1.8-1.2,3-1.2h31c1.2,0,2.2,0.4,3,1.2C212.6,183.2,213,184.2,213,185.4z M209.3,200.9
	c0-3.5-0.2-6.1-0.7-7.8c-0.4-1.5-1.3-2.5-2.8-2.8c-0.7-0.2-2.1-0.4-4.2-0.5c-2.1-0.1-4-0.2-5.8-0.2h-2.6c-6.7,0-10.9,0.2-12.5,0.7
	c-1.5,0.4-2.5,1.3-2.8,2.8c-0.2,0.8-0.4,1.8-0.5,3.1c-0.1,1.3-0.2,2.4-0.2,3.4v1.3c0,3.5,0.2,6.1,0.7,7.8c0.4,1.5,1.3,2.5,2.8,2.8
	c0.7,0.2,2.1,0.4,4.2,0.5c2.1,0.1,4,0.2,5.8,0.2h2.6c6.7,0,10.9-0.2,12.5-0.7c1.5-0.4,2.5-1.4,2.8-2.8c0.2-0.7,0.4-1.7,0.5-3
	c0.1-1.3,0.2-2.4,0.2-3.4V200.9z M190,196.1l8.4,4.8l-8.4,4.8V196.1z"/>
</svg>
