<?xml version="1.0" standalone="no"?>
<!DOCTYPE svg PUBLIC "-//W3C//DTD SVG 20010904//EN"
 "http://www.w3.org/TR/2001/REC-SVG-20010904/DTD/svg10.dtd">
<svg version="1.0" xmlns="http://www.w3.org/2000/svg"
 width="700.000000pt" height="700.000000pt" viewBox="0 0 700.000000 700.000000"
 preserveAspectRatio="xMidYMid meet">
<metadata>
Created by potrace 1.14, written by Peter Selinger 2001-2017
</metadata>
<g transform="translate(0.000000,700.000000) scale(0.100000,-0.100000)"
fill="#000000" stroke="none">
<path d="M1757 6844 c-1 -1 -40 -5 -87 -8 -111 -9 -140 -13 -235 -32 -81 -16
-222 -60 -240 -74 -5 -4 -21 -11 -35 -15 -87 -26 -227 -156 -282 -261 -79
-152 -119 -314 -144 -579 -13 -134 -7 -452 12 -656 5 -62 42 -360 49 -401 9
-50 16 -93 21 -123 66 -421 219 -1024 394 -1546 230 -686 502 -1281 758 -1654
170 -249 332 -404 472 -450 53 -18 162 -23 245 -12 129 17 351 104 545 215
121 69 408 262 493 332 7 5 39 31 72 57 33 26 62 50 65 53 3 3 37 32 75 65 39
32 77 66 86 75 19 18 29 26 169 139 138 112 617 591 865 865 69 76 189 212
220 251 22 26 53 64 69 83 81 94 267 332 358 457 466 639 686 1128 636 1408
-46 253 -401 555 -1033 876 -248 126 -395 193 -645 292 -96 39 -184 74 -195
78 -64 26 -150 57 -440 156 -317 108 -763 225 -1135 299 -96 19 -193 37 -215
40 -22 3 -85 12 -140 20 -55 8 -127 18 -160 21 -33 3 -74 8 -92 10 -81 12
-516 27 -526 19z"/>
<path d="M476 5483 c-3 -10 -8 -43 -11 -73 -3 -30 -8 -66 -10 -80 -4 -23 -14
-117 -20 -200 -26 -312 -26 -1011 0 -1285 2 -22 7 -85 10 -140 3 -55 8 -111
10 -125 2 -14 6 -63 10 -110 4 -47 8 -96 10 -110 3 -14 7 -48 9 -76 7 -63 35
-289 41 -329 13 -76 15 -93 20 -140 3 -27 8 -57 10 -65 2 -8 7 -37 10 -65 4
-27 8 -57 10 -65 3 -8 14 -69 25 -135 12 -66 33 -176 46 -245 14 -69 28 -134
30 -145 7 -34 12 -58 24 -110 14 -62 19 -82 26 -119 2 -16 7 -32 9 -36 2 -3 6
-17 8 -31 17 -89 124 -461 190 -654 149 -438 304 -735 475 -908 140 -143 325
-174 641 -106 260 56 692 235 1030 426 51 29 95 53 97 53 10 0 384 229 534
328 446 292 1024 727 1342 1010 18 16 58 51 88 77 30 26 91 80 135 120 44 40
91 83 105 95 92 79 453 447 560 570 36 41 67 77 70 80 17 17 106 128 163 203
271 357 384 631 340 822 -16 71 -82 211 -92 199 -5 -5 -56 -82 -115 -172 -137
-209 -301 -426 -506 -672 -90 -107 -166 -197 -170 -200 -3 -3 -47 -50 -96
-105 -239 -267 -730 -757 -929 -926 -22 -19 -44 -39 -50 -45 -11 -13 -155
-138 -245 -214 -30 -25 -67 -57 -84 -71 -188 -158 -517 -406 -716 -540 -650
-439 -1153 -614 -1413 -490 -133 63 -280 223 -438 476 -63 100 -255 471 -298
575 -13 30 -29 69 -37 85 -29 66 -114 278 -114 286 0 5 -9 28 -19 52 -67 148
-323 960 -356 1124 -1 10 -11 47 -20 83 -9 36 -18 72 -20 80 -2 8 -22 93 -45
189 -36 153 -108 502 -124 601 -3 19 -7 44 -10 55 -2 11 -9 56 -16 100 -7 44
-14 89 -16 99 -2 11 -8 54 -14 96 -6 42 -12 86 -14 97 -4 19 -14 99 -22 178
-2 22 -6 60 -9 85 -8 69 -14 127 -20 220 -4 47 -8 105 -10 130 -2 25 -5 82 -6
128 -1 84 -4 95 -13 65z"/>
</g>
</svg>
