<?xml version="1.0" encoding="utf-8"?>
<!-- Generator: Adobe Illustrator 26.0.3, SVG Export Plug-In . SVG Version: 6.00 Build 0)  -->
<svg version="1.1" id="Layer_1" xmlns="http://www.w3.org/2000/svg" xmlns:xlink="http://www.w3.org/1999/xlink" x="0px" y="0px"
	 viewBox="0 0 553.53 611.03" style="enable-background:new 0 0 553.53 611.03;" xml:space="preserve">
<style type="text/css">
	.st0{fill:#528783;}
	.st1{fill:#335977;}
	.st2{fill:#F6EFEF;}
	.st3{fill:#F0E6D2;}
</style>
<g>
	<path class="st0" d="M544.26,246.41c-78.46,132.54-327.68,353.39-395.51,310.01C85.5,515.98,10.2,275.84,6.59,118.26
		c-25.18,152.62,25.53,433.68,88.15,484.42c76.66,62.12,468.39-239.65,458.61-332.98C552.61,262.66,549.46,254.83,544.26,246.41z"/>
	<path class="st1" d="M524.51,340.44h-84.06c9.35-11.02,18.33-22.09,26.78-33.06c29.99-38.91,78.82-109.65,68.81-146.18
		c-3.92-14.32-18.47-30.31-43.24-47.52c-22.14-15.38-52.31-31.55-87.26-46.77C333.5,35.56,250.51,11.8,183.53,3.37
		c-52.46-6.6-119.41-6.74-140.4,30.1C30.06,56.4,25.68,93.92,30.1,145c3.87,44.77,14.36,97.37,30.34,152.12
		c27.66,94.79,74.45,201.19,116.66,225.24c5.65,3.22,12.17,4.66,19.3,4.66c31.28,0,74.32-27.7,107.87-53.75
		c12.82-9.96,26.13-21.15,39.59-33.23l180.37,2.46c11.24,0.15,20.43-8.91,20.43-20.15V360.6
		C544.66,349.47,535.64,340.44,524.51,340.44z"/>
	<g>
		<path class="st2" d="M482.98,221.17c-0.79-0.76-1.73-1.12-2.82-1.08c-1.09,0.05-2.09,0.44-3.02,1.17
			c-0.93,0.73-1.46,1.89-1.59,3.46c-0.09,1.88-0.54,4.71-1.35,8.47c-0.81,3.76-1.78,7.5-2.9,11.22c-1.13,3.72-2.26,7.01-3.41,9.88
			c-1.15,2.87-2.18,4.35-3.11,4.46c-1.39,0.16-2.38-0.97-2.97-3.4c-0.6-2.42-0.94-5.39-1.04-8.89c-0.1-3.5-0.02-7.21,0.22-11.14
			c0.24-3.93,0.51-7.31,0.8-10.16c0.29-2.84-0.22-4.57-1.54-5.2c-1.32-0.63-2.9-0.79-4.74-0.5c-1.84,0.29-3.78,0.71-5.82,1.26
			c-2.04,0.55-3.55,0.65-4.53,0.29c0.89-3.07,1.04-5.77,0.46-8.13c-0.59-2.35-2.5-3.34-5.73-2.96c-1.85,0.22-3.44,0.99-4.76,2.31
			c-1.33,1.33-2.28,2.84-2.86,4.55c-0.58,1.71-0.68,3.47-0.32,5.3c0.37,1.83,1.33,3.35,2.87,4.58l-0.93,4.09
			c-0.29,0.94-0.31,1.72-0.12,2.37c-0.2,1.19-0.45,2.53-0.77,4.05c-0.7,3.36-1.52,6.73-2.45,10.11c-0.93,3.38-1.91,6.35-2.94,8.88
			c-1.03,2.54-2.01,3.86-2.93,3.97c-1.23,0.14-2.2-1.15-2.91-3.87c-0.71-2.73-1.21-6.02-1.5-9.89c-0.3-3.86-0.42-7.91-0.36-12.13
			c0.05-4.22,0.23-7.75,0.52-10.59c0.07-2.03-0.52-3.72-1.76-5.06c-1.25-1.33-2.76-2.25-4.53-2.75c-1.78-0.49-3.58-0.56-5.4-0.19
			c-1.83,0.37-3.28,1.32-4.35,2.85c-1.29-1.72-2.84-3.26-4.63-4.61c-1.8-1.35-3.8-2.13-6.01-2.34c-5.82-0.41-10.57,1.04-14.24,4.35
			c-3.67,3.32-6.41,7.57-8.22,12.78c-0.81,2.34-1.44,4.79-1.9,7.33c-0.11,0.34-0.2,0.71-0.28,1.11c-0.13,1.58-0.5,4.08-1.12,7.5
			c-0.62,3.43-1.41,6.95-2.39,10.58c-0.98,3.63-2.05,6.83-3.21,9.62c-1.16,2.79-2.43,4.26-3.81,4.42c-1.54,0.18-2.81-1.66-3.8-5.52
			c-1-3.86-1.85-8.87-2.57-15.03c-0.72-6.15-1.27-12.88-1.65-20.17c-0.38-7.29-0.62-14.36-0.72-21.21
			c-0.1-6.85-0.14-12.89-0.12-18.12c0.01-5.23,0.07-8.78,0.16-10.67c0.17-2.51-0.72-4.44-2.66-5.77c-1.95-1.33-4.09-1.94-6.42-1.83
			c-2.33,0.12-4.41,1.02-6.23,2.72c-1.83,1.7-2.53,4.39-2.1,8.08c0.45,3.85,0.73,9.59,0.84,17.22c0.11,7.63,0.37,15.87,0.78,24.72
			c-2.63-2.5-5.51-3.8-8.65-3.91c-5.8-0.26-10.57,1.04-14.29,3.89c-3.72,2.86-6.53,6.58-8.41,11.16c-1.38,3.37-2.29,6.97-2.73,10.81
			c-0.23,1.13-0.69,2.79-1.39,5c-0.8,2.51-1.8,5.28-3.01,8.31c-1.21,3.03-2.63,6.2-4.27,9.51c-1.64,3.31-3.41,6.25-5.29,8.81
			c-1.89,2.56-3.91,4.63-6.06,6.21c-2.16,1.58-4.27,2.18-6.34,1.79c-1.6-0.28-2.91-1.22-3.96-2.81c-1.05-1.59-1.9-3.6-2.57-6.02
			c-0.67-2.42-1.15-5.17-1.43-8.26c-0.28-3.09-0.38-6.28-0.3-9.56c1.67-0.35,3.61-0.81,5.81-1.38c2.19-0.57,4.33-1.32,6.4-2.27
			c2.07-0.95,3.97-2.06,5.69-3.36c1.72-1.29,3.1-2.85,4.13-4.69c1.3-2.18,1.64-5.03,0.99-8.54c-0.64-3.51-1.94-6.87-3.87-10.08
			c-1.93-3.2-4.47-5.91-7.62-8.12c-3.15-2.21-6.56-3.09-10.26-2.66c-3.85,0.45-7.13,2.78-9.83,7c-2.71,4.22-4.76,9.37-6.15,15.46
			c-1.4,6.09-2.05,12.53-1.96,19.3c0.05,3.63,0.34,7.11,0.87,10.44c-2.19,1.19-4.88,2.78-8.1,4.8
			c-10.03,6.32-20.59,11.41-31.68,15.28c-11.1,3.87-22.34,6.47-33.73,7.79c-4.93,0.57-10.29,0.77-16.08,0.59
			c-5.79-0.18-11.68-0.82-17.66-1.92c-5.98-1.1-11.82-2.72-17.53-4.86c-5.71-2.14-10.88-4.97-15.5-8.49
			c-4.62-3.52-8.51-7.74-11.66-12.68c-3.15-4.93-5.11-10.71-5.88-17.33c-0.81-6.93-0.2-13.43,1.82-19.52
			c2.02-6.09,5.03-11.74,9.02-16.97c3.99-5.22,8.79-9.95,14.37-14.2c5.59-4.24,11.51-7.93,17.78-11.08
			c6.26-3.15,12.68-5.69,19.24-7.63c6.56-1.93,12.76-3.24,18.61-3.93c0.77-0.09,2.39-0.24,4.86-0.45c2.47-0.21,5.35-0.31,8.62-0.3
			c3.28,0.01,6.7,0.27,10.27,0.79c3.57,0.52,6.91,1.38,10.01,2.58c3.1,1.2,5.71,2.84,7.83,4.94c2.12,2.09,3.37,4.84,3.77,8.22
			c0.43,3.69-0.45,7.15-2.65,10.37c-2.2,3.22-5.15,6.02-8.85,8.4c-3.7,2.38-7.87,4.39-12.52,6.03c-4.65,1.63-9.2,2.71-13.67,3.23
			c-6.16,0.72-11.49,0.48-16-0.71c-4.51-1.19-6.88-2.78-7.11-4.79c-0.13-1.07,0.28-2.29,1.21-3.65c0.93-1.36,2.03-2.61,3.3-3.78
			c1.27-1.16,2.55-2.21,3.85-3.14c1.29-0.93,2.23-1.58,2.81-1.97c3.4-1.64,5.77-3.36,7.12-5.16c1.35-1.8,1.98-3.07,1.89-3.85
			c-0.14-1.23-1.25-1.96-3.3-2.19c-2.06-0.23-4.16-0.22-6.31,0.03c-3.23,0.38-6.56,1.27-9.98,2.69c-3.43,1.41-6.49,3.25-9.19,5.52
			c-2.7,2.27-4.85,4.9-6.45,7.89c-1.6,2.99-2.2,6.26-1.78,9.8c0.57,4.93,2.21,8.95,4.92,12.06c2.7,3.12,6.11,5.57,10.22,7.35
			c4.11,1.78,8.65,2.89,13.61,3.33c4.97,0.44,9.91,0.37,14.84-0.21c6.31-0.74,12.82-2.43,19.53-5.09
			c6.71-2.65,12.79-6.06,18.24-10.2c5.44-4.15,9.75-9.01,12.92-14.61c3.17-5.6,4.38-11.63,3.62-18.09c-0.93-8-3.87-14.45-8.81-19.33
			c-4.94-4.88-10.83-8.57-17.67-11.04s-14.08-3.97-21.7-4.49c-7.63-0.51-14.67-0.39-21.14,0.36c-11.85,1.38-23.71,4.68-35.59,9.89
			c-11.88,5.21-22.44,11.94-31.69,20.19c-9.26,8.26-16.51,17.96-21.76,29.1c-5.25,11.14-7.12,23.26-5.59,36.34
			c1.36,11.7,5.44,21.52,12.21,29.47c6.78,7.95,14.84,14.22,24.19,18.82c9.35,4.6,19.3,7.69,29.86,9.27
			c10.56,1.58,20.22,1.85,29,0.83c13.85-1.62,27.53-5.36,41.05-11.22c13.51-5.87,26.09-13.69,37.75-23.47
			c1.02-0.85,1.95-1.64,2.81-2.39c0.1,0.36,0.2,0.73,0.31,1.09c1.76,5.73,4.4,10.33,7.93,13.82c3.53,3.49,8.06,4.91,13.6,4.26
			c4.62-0.54,8.69-2.03,12.23-4.47c3.54-2.44,6.59-5.33,9.17-8.68c2.57-3.34,4.69-6.94,6.35-10.8c0.67-1.55,1.27-3.07,1.84-4.58
			c1.53,3.99,3.6,7.47,6.21,10.42c3.05,3.47,6.88,5.48,11.47,6.03c2.57,0.64,5.47,0.14,8.72-1.48c2.95-1.43,5.33-3.43,7.14-5.98
			c1.81-2.55,3.16-5.36,4.05-8.43c1.61,4.49,3.55,8.05,5.81,10.67c2.25,2.62,5.15,3.73,8.69,3.32c4.77-0.56,8.67-2.88,11.71-6.98
			c2.06-2.79,3.79-5.78,5.19-8.96c1.54,4.51,3.62,8.46,6.26,11.84c3.12,4,6.98,6.36,11.59,7.07c2.53,0.33,5.35-0.24,8.46-1.69
			c3.22-1.78,5.74-4.3,7.54-7.55c1.8-3.25,3.11-6.8,3.91-10.64c2.48,3.92,6.03,6.24,10.64,6.95c2.86,0.45,5.4-0.16,7.63-1.82
			c2.22-1.66,4.15-3.88,5.78-6.64c1.63-2.76,2.98-5.88,4.06-9.37c1.07-3.48,1.97-6.82,2.69-10.03c0.72-3.2,1.27-6.12,1.67-8.74
			c0.4-2.62,0.69-4.41,0.89-5.37c0.09-0.42,0.11-0.81,0.11-1.18c0.61-0.07,1.22-0.14,1.84-0.21c0.77-0.09,1.53-0.25,2.28-0.5
			c-0.8,3.84-1.26,8.26-1.38,13.27c-0.12,5.01,0.31,9.68,1.28,14.01c0.97,4.33,2.49,7.98,4.55,10.94c2.06,2.96,4.95,4.3,8.66,4.02
			c3.25-0.23,6.08-1.37,8.49-3.45c2.41-2.07,4.52-4.7,6.34-7.88c1.81-3.17,3.29-6.58,4.42-10.23c1.13-3.64,2.06-7.1,2.77-10.39
			c0.71-3.28,1.22-6.23,1.54-8.84c0.32-2.61,0.51-4.31,0.58-5.1C484.17,223.1,483.77,221.94,482.98,221.17z M267.93,234.32
			c0.83-3.61,1.75-5.7,2.78-6.29c0.58-0.38,1.21,0.02,1.89,1.18c0.68,1.17,1.25,2.66,1.69,4.48c0.45,1.82,0.69,3.63,0.75,5.41
			c0.05,1.79-0.18,3.18-0.68,4.17c-0.63,1.32-1.76,2.28-3.41,2.85c-1.65,0.58-3.32,0.97-5.01,1.17
			C266.44,242.26,267.1,237.93,267.93,234.32z M334.95,251.19c-0.13,4.23-0.66,8.11-1.57,11.65c-0.92,3.54-2.13,6.49-3.65,8.85
			c-1.52,2.36-3.3,3.51-5.33,3.43c-2.04-0.07-3.73-1.24-5.09-3.5c-1.36-2.26-2.35-5.11-2.99-8.54c-0.64-3.44-0.91-7.11-0.82-11.02
			c0.09-3.91,0.56-7.51,1.43-10.82c0.86-3.29,2.14-6.06,3.83-8.29c1.69-2.22,3.79-3.25,6.31-3.08c1.73,0.11,3.14,1.19,4.24,3.25
			c1.1,2.06,1.92,4.14,2.49,6.26C334.7,243.03,335.08,246.97,334.95,251.19z M403.7,247.74c-0.14,4.78-0.65,9.17-1.51,13.16
			c-0.86,4-2.03,7.34-3.51,10c-1.48,2.67-3.24,3.97-5.28,3.89c-2.04-0.07-3.72-1.44-5.04-4.09c-1.33-2.65-2.33-5.93-3.02-9.83
			c-0.69-3.9-1.02-8.07-0.99-12.52c0.03-4.45,0.44-8.59,1.24-12.43c0.8-3.84,2.03-6.98,3.7-9.44c1.66-2.45,3.75-3.6,6.27-3.42
			c1.73,0.11,3.16,1.35,4.29,3.71c1.13,2.36,2,4.84,2.62,7.42C403.44,238.45,403.85,242.96,403.7,247.74z"/>
		<g>
			<path class="st2" d="M146.14,102.5c0-2.35-0.02-5.44-0.07-9.25c-0.05-3.81-0.17-7.79-0.35-11.94c-0.19-4.14-0.42-8.24-0.71-12.29
				c-0.28-4.05-0.66-7.53-1.13-10.45l31.5-0.85c1.88,0,4.19,0,6.92,0c2.73,0,5.37-0.09,7.91-0.28c2.54-0.19,4.73-0.59,6.57-1.2
				c1.84-0.61,2.76-1.58,2.76-2.9c0-1.41-0.49-2.66-1.48-3.74c-0.99-1.08-2.17-1.98-3.53-2.68c-1.37-0.71-2.83-1.22-4.38-1.55
				c-1.55-0.33-2.9-0.54-4.03-0.64c-6.88-0.37-13.7-0.35-20.48,0.07c-6.78,0.42-13.54,1.01-20.27,1.77
				c-6.74,0.75-13.45,1.6-20.13,2.54c-6.69,0.94-13.33,1.74-19.92,2.4c-1.79,0.28-3.89,0.42-6.29,0.42c-2.4,0-4.69,0.12-6.85,0.35
				c-2.17,0.24-4,0.71-5.51,1.41c-1.51,0.71-2.26,1.82-2.26,3.32c0,0.76,0.61,1.53,1.84,2.33c1.22,0.8,3.01,1.2,5.37,1.2
				c7.82,0,15.47-0.21,22.96-0.64c7.49-0.42,15-0.73,22.53-0.92c-0.38,1.32-0.73,2.87-1.06,4.66c-0.33,1.79-0.61,4.24-0.85,7.35
				c-0.24,3.11-0.45,7.09-0.64,11.94c-0.19,4.85-0.33,11-0.42,18.44c0,2.17-0.14,4.8-0.42,7.91c-0.28,3.11-0.47,6.26-0.57,9.46
				c-0.1,3.2-0.05,6.22,0.14,9.04c0.19,2.83,0.71,4.94,1.55,6.36c0.28,0.37,0.68,0.85,1.2,1.41c0.52,0.57,1.11,1.13,1.77,1.7
				c0.66,0.57,1.34,1.06,2.05,1.48c0.71,0.42,1.39,0.64,2.05,0.64c0.85,0,1.53-0.8,2.05-2.4c0.52-1.6,0.94-3.62,1.27-6.07
				c0.33-2.45,0.57-5.16,0.71-8.12c0.14-2.97,0.23-5.81,0.28-8.55c0.05-2.73,0.05-5.16,0-7.28
				C146.16,104.83,146.14,103.35,146.14,102.5z"/>
			<path class="st2" d="M240.23,108.08c-0.38-0.52-0.85-0.82-1.41-0.92c-0.57-0.09-1.15,0-1.77,0.28c-0.61,0.28-1.06,0.85-1.34,1.7
				c-0.19,0.66-0.61,1.72-1.27,3.18c-0.66,1.46-1.46,3.06-2.4,4.8c-0.94,1.74-2.03,3.56-3.25,5.44c-1.22,1.89-2.5,3.53-3.81,4.95
				c-1.32,1.41-2.68,2.52-4.1,3.32c-1.41,0.8-2.73,1.01-3.96,0.64c-0.94-0.28-1.67-0.94-2.19-1.98c-0.52-1.04-0.9-2.31-1.13-3.81
				c-0.24-1.51-0.33-3.2-0.28-5.09c0.05-1.88,0.21-3.81,0.49-5.79c1.04-0.09,2.24-0.23,3.6-0.42c1.36-0.19,2.71-0.49,4.03-0.92
				c1.32-0.42,2.54-0.96,3.67-1.62c1.13-0.66,2.07-1.51,2.83-2.54c0.94-1.22,1.34-2.92,1.2-5.09c-0.14-2.16-0.68-4.28-1.63-6.36
				c-0.94-2.07-2.28-3.89-4.03-5.44c-1.74-1.55-3.74-2.33-6-2.33c-2.36,0-4.5,1.18-6.43,3.53c-1.93,2.35-3.53,5.32-4.8,8.9
				c-0.78,2.19-1.38,4.48-1.84,6.86c-0.38,1.19-0.91,2.69-1.62,4.51c-0.76,1.93-1.6,3.82-2.54,5.65c-0.94,1.84-1.86,3.41-2.76,4.73
				c-0.9,1.32-1.63,1.98-2.19,1.98c-0.47,0-0.73-1.13-0.78-3.39c-0.05-2.26,0.05-4.8,0.28-7.63c0.23-2.83,0.54-5.58,0.92-8.26
				c0.38-2.68,0.71-4.45,0.99-5.3c0.47-1.32,0.3-2.28-0.49-2.9c-0.8-0.61-1.86-0.94-3.18-0.99c-1.32-0.05-2.68,0.19-4.1,0.71
				c-1.41,0.52-2.5,1.25-3.25,2.19c-0.76,1.04-1.81,2.71-3.18,5.02c-1.37,2.31-2.61,4.69-3.74,7.13c0.28-4.43,0.59-8.9,0.92-13.42
				c0.33-4.52,0.68-8.66,1.06-12.43c0.37-3.77,0.68-6.97,0.92-9.61c0.23-2.64,0.45-4.28,0.64-4.94c0.28-1.51-0.12-2.73-1.2-3.67
				c-1.08-0.94-2.33-1.46-3.74-1.55c-1.41-0.09-2.73,0.31-3.96,1.2c-1.22,0.9-1.84,2.47-1.84,4.73c0,1.04-0.07,2.94-0.21,5.72
				c-0.14,2.78-0.31,6.05-0.49,9.82c-0.19,3.77-0.42,7.84-0.71,12.22c-0.28,4.38-0.57,8.69-0.85,12.93
				c-0.28,4.24-0.57,8.22-0.85,11.94c-0.28,3.72-0.52,6.76-0.71,9.11c-0.19,1.41,0.21,2.42,1.2,3.04c0.99,0.61,2.12,0.89,3.39,0.85
				c1.27-0.05,2.45-0.42,3.53-1.13c1.08-0.71,1.62-1.72,1.62-3.04v-1.41c0.09-0.09,0.14-0.28,0.14-0.57
				c0.09-1.13,0.52-2.87,1.27-5.23c0.75-2.35,1.58-4.73,2.47-7.13c0.89-2.4,1.77-4.57,2.61-6.5c0.85-1.93,1.51-2.99,1.98-3.18
				c-0.28,0.76-0.54,1.89-0.78,3.39c-0.24,1.51-0.38,3.16-0.42,4.94c-0.05,1.79,0.05,3.63,0.28,5.51c0.23,1.88,0.68,3.53,1.34,4.94
				c0.66,1.41,1.6,2.5,2.83,3.25c1.22,0.76,2.83,0.94,4.8,0.57c1.79-0.37,3.55-1.53,5.3-3.46c1.65-1.82,3.12-3.91,4.43-6.25
				c0.09,0.7,0.17,1.4,0.3,2.08c0.66,3.58,1.93,6.55,3.81,8.9c1.88,2.35,4.52,3.53,7.91,3.53c2.83,0,5.39-0.61,7.7-1.84
				c2.31-1.22,4.36-2.76,6.15-4.59c1.79-1.84,3.32-3.86,4.59-6.07c1.27-2.21,2.35-4.35,3.25-6.43c0.89-2.07,1.58-3.93,2.05-5.58
				c0.47-1.65,0.8-2.75,0.99-3.32C240.7,109.29,240.6,108.6,240.23,108.08z M217.06,100.31c0.75-2.12,1.46-3.32,2.12-3.6
				c0.37-0.19,0.73,0.09,1.06,0.85c0.33,0.76,0.57,1.7,0.71,2.83s0.16,2.24,0.07,3.32c-0.1,1.08-0.33,1.91-0.71,2.47
				c-0.47,0.75-1.23,1.25-2.26,1.48c-1.04,0.24-2.07,0.35-3.11,0.35C215.6,105,216.3,102.43,217.06,100.31z"/>
		</g>
	</g>
	<g>
		<path class="st3" d="M154.8,355.36h14.64l12.62,38.51c0.46,1.37,1.1,4.3,1.74,8.87c0.55-4.67,1.19-7.68,1.65-8.96l12.81-38.42
			h14.45l9.97,65.41h-13.26l-4.76-39.43c-0.46-3.57-0.91-7.14-0.91-10.79c0-0.82,0-1.65,0.09-2.47c-0.91,5.4-1.74,9.06-2.38,10.89
			l-13.81,41.81h-7.87l-13.63-41.81c-0.27-0.82-1.1-4.48-2.47-10.89c0,0.64,0,1.37,0,1.92c0,4.67-0.46,8.32-0.82,11.34l-4.76,39.43
			h-13.26L154.8,355.36z"/>
		<path class="st3" d="M306.84,412.45c-6.77,6.49-15.55,10.06-24.7,10.06c-8.05,0-15.92-2.83-22.23-7.87
			c-8.23-6.59-12.72-16.01-12.72-26.44c0-9.33,3.48-17.75,10.15-24.24c6.59-6.4,15.64-10.06,24.79-10.06
			c9.15,0,18.11,3.66,24.7,10.06c6.68,6.5,10.15,15,10.15,24.24C316.99,397.53,313.43,406.13,306.84,412.45z M302.63,388.2
			c0-12.07-8.51-21.95-20.49-21.95c-12.17,0-20.58,9.88-20.58,21.95c0,12.17,8.05,21.86,20.58,21.86
			C294.31,410.07,302.63,400.37,302.63,388.2z"/>
		<path class="st3" d="M369.82,420.77h-14v-53.52h-16.01v-11.89h46.11v11.89h-16.1V420.77z"/>
		<path class="st3" d="M413.28,355.36h38.51v11.8h-24.52v13.45h24.52v11.89h-24.52v16.38h24.52v11.89h-38.51V355.36z"/>
		<path class="st3" d="M483.81,355.36h14v53.52h22.32v11.89h-36.32V355.36z"/>
	</g>
</g>
</svg>
